<svg width="65" height="79" viewBox="0 0 65 79" fill="none" xmlns="http://www.w3.org/2000/svg">
<path d="M5.70999 76.16C6.44999 76.8 6.76999 76.8 7.39999 76.9C12.15 77.11 13.95 73.21 15.95 67.93C19.33 60.22 23.45 49.35 41.4 47.66L53.33 76.27H62.2L30.63 1.72H29.89C21.86 15.34 12.36 34.56 6.76999 49.66C4.22999 56.42 2.76001 62.33 2.23001 66.98C1.70001 71.73 2.85999 74.9 5.70999 76.17V76.16ZM7.51001 49.87C11.95 37.62 19.13 23.26 25.57 10.8L41.09 46.92C22.82 48.71 18.6 59.8 15.11 67.72C13.42 72.58 11.73 76.27 7.51001 75.96C6.98001 75.65 6.66 75.65 6.03 75.44C3.5 74.59 2.76 71.32 2.97 66.99C3.5 62.45 4.97001 56.64 7.51001 49.88V49.87Z" fill="#9D744D" stroke="#9D744D" stroke-width="3"/>
</svg>

