</svg>
<svg width="864" height="576" viewBox="0 0 864 576" fill="none" xmlns="http://www.w3.org/2000/svg">
<path d="M184.35 248.98C158.59 236.94 157.74 225.33 165.98 219.94C175.7 213.18 194.91 214.77 205.58 236.41V225.32C196.5 210.64 157.96 210.11 157.96 233.66C157.96 245.7 169.05 251.72 180.35 256.79C204.95 268.09 206.85 278.96 199.88 284.77C186.57 295.96 162.92 286.77 152.57 260.59V275.27C164.5 290.58 188.68 294.8 200.72 285.62C204.52 282.56 206.85 278.12 206.85 272.42C206.85 259.96 195.87 253.94 184.36 248.98H184.35Z" fill="#DACBB1"/>
<path d="M240.24 289.43H222.39V240.54C225.45 253 238.12 252.37 244.25 259.34V251C229.78 251 222.39 248.04 222.39 233.58V216.47H231.05C243.93 216.47 249.42 217 256.92 224.18V215.73H214.26V290.28H256.29L258.72 274.65C254.92 285.32 249.43 289.43 240.24 289.43Z" fill="#DACBB1"/>
<path d="M292.43 289.43H274.58V215.72H266.13V290.27H308.26L310.8 274.64C306.89 285.31 301.51 289.42 292.43 289.42V289.43Z" fill="#DACBB1"/>
<path d="M326.35 240.53C329.52 252.99 341.98 252.36 348.42 259.33V250.99C333.74 250.99 326.35 248.03 326.35 233.57V216.46H334.9C347.99 216.46 353.48 216.99 360.87 224.17V215.72H318.21V290.27H326.34V240.54L326.35 240.53Z" fill="#DACBB1"/>
<path d="M437.71 290.16C438.45 290.8 438.77 290.8 439.4 290.9C444.15 291.11 445.95 287.21 447.95 281.93C451.33 274.22 455.45 263.35 473.4 261.66L485.33 290.27H494.2L462.63 215.72H461.89C453.86 229.34 444.36 248.56 438.77 263.66C436.23 270.42 434.76 276.33 434.23 280.98C433.7 285.73 434.86 288.9 437.71 290.17V290.16ZM439.51 263.87C443.95 251.62 451.13 237.26 457.57 224.8L473.09 260.92C454.82 262.71 450.6 273.8 447.11 281.72C445.42 286.58 443.73 290.27 439.51 289.96C438.98 289.65 438.66 289.65 438.03 289.44C435.5 288.59 434.76 285.32 434.97 280.99C435.5 276.45 436.97 270.64 439.51 263.88V263.87Z" fill="#DACBB1"/>
<path d="M509.98 231.03C510.93 235.47 512.2 238.85 514.1 241.91C517.27 246.88 521.81 249.51 526.98 249.51C550.84 249.51 526.98 290.27 565.41 290.27V289.43C558.34 289.43 554.43 281.4 550.42 272.22C546.19 262.29 542.5 251.63 531.52 249.1C540.71 247.93 548.52 242.66 548.52 232.31C548.52 220.27 535.74 215.63 520.22 215.63H501.64V290.29H509.98V231.05V231.03ZM509.98 216.46H520.22C530.46 216.46 540.18 220.26 540.18 232.3C540.18 243.39 534.48 248.35 527.72 248.77H526.98C522.12 248.77 517.79 245.71 514.84 241.38C511.88 236.73 509.98 230.71 509.98 223.01V216.46Z" fill="#DACBB1"/>
<path d="M598.82 289.43H580.97V240.54C584.03 253 596.7 252.37 602.83 259.34V251C588.36 251 580.97 248.04 580.97 233.58V216.47H589.63C602.51 216.47 608 217 615.5 224.18V215.73H572.84V290.28H614.87L617.29 274.65C613.49 285.32 608 289.43 598.81 289.43H598.82Z" fill="#DACBB1"/>
<path d="M685.45 249.19C694 247.4 700.97 242.12 700.97 232.61C700.97 220.47 688.3 215.72 672.46 215.72H654.19V290.27H679.21C695.47 290.16 708.14 286.57 708.14 269.57C708.14 254.58 698.74 250.14 685.44 249.19H685.45ZM662.54 216.46H672.47C682.61 216.46 692.74 220.58 692.74 232.62C692.74 244.66 686.3 248.88 679.22 248.88C674.47 248.88 670.35 246.24 667.39 241.49C664.33 237.05 662.53 230.72 662.53 223.43V216.46H662.54ZM678.38 289.43H662.54V231.46C663.39 235.58 664.65 239.17 666.55 242.02C669.62 246.88 674.26 249.73 679.22 249.73C688.41 249.73 699.92 250.68 699.92 269.58C699.92 288.48 687.88 289.43 678.38 289.43Z" fill="#DACBB1"/>
<path d="M752.84 215.61C754.85 215.82 758.23 217.83 756.01 222.16L738.59 255.95L730.77 242.96L714.51 215.61H705.01L730.77 258.9V290.26H739.11V256.68L757.27 221.62C758.01 219.72 762.02 215.81 764.77 215.6H752.84V215.61Z" fill="#DACBB1"/>
<path d="M384.99 370.25C384.69 370.25 384.45 370.3 384.26 370.4C383.67 370.69 383.14 370.83 382.65 370.83C381.68 370.83 380.66 370.11 379.59 368.65C378.14 366.51 377.16 363.84 376.67 360.62C375.99 356.83 375.65 353.52 375.65 350.7C375.65 342.34 376.43 333.48 377.98 324.15C378.95 317.93 380.89 308.69 383.82 296.43L384.69 292.78C384.97 291.66 385.26 290.34 385.57 288.87C392.38 291.25 399.97 291.63 407.58 289.44C415.18 287.43 421.94 283.1 426.59 277.3V263.89C425.11 275.3 419.09 285.75 407.37 288.92C399.62 291.02 392.39 289.09 386.32 284.94C386.41 284.42 386.5 284.01 386.6 283.46C386.89 282.59 387.04 281.76 387.04 280.98C387.04 280.01 386.84 279.13 386.45 278.35C385.87 277.09 384.94 276.46 383.68 276.46C383.48 276.46 383.1 276.56 382.52 276.75C381.6 277.21 380.63 277.98 379.62 278.96C375 273.77 371.54 267.33 369.79 260.94C365.77 244.89 370.32 222.71 388.37 217.75C411.39 211.31 422.69 236.65 422.69 236.65V225.67C422.69 225.67 411.71 210.57 388.16 217.01C368.2 222.29 356.48 242.98 361.65 263.05C364.06 271.51 369.11 278.43 375.55 283.32C373.55 285.51 371.77 287.49 370.47 289C368.38 291.43 366.41 294.11 364.56 297.03L355.22 311.33C355.02 311.63 354.1 312.99 352.45 315.42C352.06 316 351.72 316.47 351.43 316.8C351.14 317.14 350.79 317.31 350.41 317.31L348.66 317.02C346.04 316.44 342.73 315.8 338.74 315.12C337.37 314.93 336.31 314.83 335.53 314.83C333.68 314.83 331.78 315.12 329.84 315.71C328.09 316.39 326.78 317.27 325.9 318.33C325.22 319.11 324.88 319.99 324.88 320.96C324.88 321.64 325.03 322.27 325.32 322.85C326.19 324.41 327.36 325.18 328.82 325.18H329.11L329.84 324.74C330.04 324.45 329.98 324.16 329.69 323.87C329.6 323.67 329.45 323.56 329.26 323.51C329.06 323.46 328.92 323.39 328.82 323.29C327.75 322.41 327.22 321.63 327.22 320.96C327.22 320.08 327.9 319.35 329.26 318.77C330.81 318.09 332.22 317.75 333.49 317.75C338.26 317.46 343.31 318.39 348.66 320.52C348.66 321.3 348.49 321.96 348.15 322.49C347.81 323.02 347.59 323.34 347.5 323.43L329.99 353.64C329.6 354.32 328.43 356.33 326.49 359.69C324.54 363.05 322.5 366.14 320.36 368.96C319.1 370.71 317.88 372.17 316.72 373.34C316.33 373.73 315.89 373.85 315.41 373.71C314.92 373.56 314.63 373.25 314.53 372.76C314.24 371.5 314.1 370.23 314.1 368.97C314.1 367.51 314.34 365.95 314.83 364.3C315.12 363.13 315.75 362.5 316.72 362.4C317.5 362.2 317.89 361.87 317.89 361.38V361.23C317.79 360.46 317.25 359.92 316.28 359.63C314.83 359.34 313.66 359.97 312.78 361.53C311.52 364.06 310.89 366.68 310.89 369.41C310.89 371.45 311.23 373.44 311.91 375.39L312.35 376.27C313.13 377.43 314.15 378.02 315.41 378.02C316.09 378.02 316.72 377.87 317.3 377.58C318.47 377.09 319.54 376.17 320.51 374.81C323.72 370.73 325.81 367.91 326.78 366.35C330.09 360.9 333.64 354.87 337.43 348.26L351.43 324.48C352.01 323.51 352.45 322.88 352.74 322.59C353.03 322.3 353.42 322.15 353.91 322.15C354.3 322.15 355.03 322.3 356.1 322.59C362.23 324.54 367.47 325.56 371.86 325.65C373.02 325.65 373.61 326.14 373.61 327.11V327.4C373.61 327.89 373.56 328.37 373.46 328.86C373.36 329.35 373.32 329.83 373.32 330.31C372.44 337.8 372 344.12 372 349.28C372 356.87 372.88 362.99 374.63 367.67C376.19 371.27 378.52 373.75 381.63 375.11C382.31 375.5 383.09 375.7 383.97 375.7H384.84C385.42 375.6 385.91 375.28 386.3 374.75C386.69 374.22 386.88 373.56 386.88 372.78V372.49C386.78 371.91 386.57 371.4 386.23 370.96C385.89 370.52 385.47 370.3 384.99 370.3V370.25ZM373.9 321.08C373.51 321.37 372.64 321.57 371.27 321.66H370.25C368.21 321.66 366.21 321.45 364.27 321.01C362.32 320.57 359.79 319.91 356.68 319.04C356 318.84 355.66 318.46 355.66 317.87L355.8 317.29L357.12 315.25L359.16 312.19C365.96 301.98 369.81 296.24 370.68 294.97C372.24 292.64 374.86 289.53 378.56 285.63L378.64 285.54C379.73 286.2 380.89 286.7 382.04 287.25C381.85 288.13 381.64 289.05 381.33 290.16C379.67 297.65 377.54 307.09 374.91 318.47C374.62 319.92 374.27 320.8 373.89 321.09L373.9 321.08Z" fill="#DACBB1"/>
<path d="M591.73 321.3L589.89 322.55L569.4 338.34C568.84 338.76 568.13 339.23 567.28 339.75C566.75 338.99 566.5 338.57 566.49 338.47C565.92 334.31 564.91 329.15 563.47 322.98C563.22 321.82 563.09 320.91 563.06 320.22L563.13 318.32C563.31 315.69 564.56 313.15 566.89 310.71C568.56 308.88 570.51 307.97 572.76 307.97C573.06 308.06 573.49 307.99 574.06 307.77C574.35 307.66 574.58 307.46 574.76 307.15C574.94 306.85 575.02 306.56 575.01 306.27C575 305.98 574.84 305.7 574.53 305.41C573.92 304.85 573.38 304.54 572.88 304.46C572.48 304.38 571.85 304.36 570.98 304.4C569.43 304.47 567.94 304.97 566.52 305.91C561.53 309.73 559.15 314.41 559.4 319.95C559.43 320.63 559.57 321.51 559.69 322.33C559.13 322.71 558.59 323.13 558.11 323.66C555.78 326 553.28 327.96 550.62 329.53C549.67 330.06 548.85 330.34 548.17 330.37C546.91 330.43 545.71 329.6 544.56 327.9C544.25 327.43 543.96 326.88 543.69 326.26C543.42 325.64 543.13 325.1 542.82 324.62C542.09 323.48 541.14 322.94 539.97 322.99C539.39 323.02 538.81 323.18 538.24 323.51C537.2 324.23 536.13 325.21 535.01 326.42C532.59 328.96 530.4 332.23 528.43 336.2L523.25 347.96L523.1 347.82H523.25C522.93 347.24 522.76 346.66 522.73 346.08C522.7 345.5 522.86 344.52 523.19 343.14C524.16 338.72 525.52 334.18 527.26 329.53C528.84 325.57 529.98 322.6 530.67 320.62C531.1 319.43 531.3 318.35 531.26 317.38C531.42 316.7 531.06 316.22 530.18 315.97C529.49 315.81 528.91 315.97 528.45 316.49C528.18 316.89 527.97 317.27 527.84 317.61C527.71 317.96 527.55 318.28 527.37 318.58L525.3 324.1C524.87 324.04 524.43 324.15 523.99 324.57L521.33 327.32L511.41 337.53C508.34 340.59 504.94 343.22 501.24 345.43C498.86 346.7 496.81 347.57 495.07 348.04C492.37 348.65 490.67 347.6 489.97 344.91C489.54 344.05 489.3 342.94 489.24 341.58C489.21 340.8 489.23 340.22 489.31 339.82C489.47 339.03 489.84 338.58 490.42 338.46C493.03 338.05 495.33 337.06 497.3 335.46C499.27 333.86 501.42 331.7 503.74 328.97C505.69 326.75 506.79 324.17 507.05 321.23C507.17 319.57 506.8 318.28 505.93 317.34C505.06 316.4 503.9 315.97 502.44 316.03C500.79 316.1 499.32 316.53 498.04 317.32C496.76 318.11 495.42 319.21 494.03 320.64C492 322.74 490.37 325.25 488.98 328.02L488.81 328.17C478.53 338.07 470.66 346.15 465.19 352.43C465 352.63 464.65 353.06 464.15 353.72C463.65 354.38 463.05 354.77 462.38 354.89C462.06 354.32 462.01 353.74 462.23 353.14C462.45 352.55 462.55 352.2 462.55 352.1C465.06 340.5 467.47 331.1 469.79 323.89C470.21 322.41 470.74 320.1 471.38 316.96C471.53 315.88 471.1 315.08 470.11 314.53C469.81 314.35 469.42 314.27 468.93 314.29C468.35 314.32 467.87 314.53 467.5 314.93L462.04 320.28C461.94 320.38 461.73 320.61 461.41 320.96C461.09 321.32 460.73 321.5 460.34 321.52C460.05 321.53 459.8 321.5 459.6 321.41C459.59 321.12 459.46 320.49 459.23 319.52C458.5 316.24 456.32 314.25 452.69 313.53C451.61 313.29 450.58 313.19 449.61 313.23C447.66 313.32 445.45 313.99 442.98 315.27C436.56 318.91 431.99 323.9 429.25 330.23C428.68 330.82 427.9 331.59 426.8 332.62L421.91 337.65L419.53 340.09C417.85 341.73 416.29 342.82 414.85 343.37C413.7 343.81 412.86 343.5 412.33 342.46C411.59 341.23 411.09 339.74 410.82 338L409.78 330.89C409.51 329.25 409.17 328.05 408.75 327.29C407.81 325.77 406.66 325.05 405.3 325.11C404.52 325.14 403.8 325.37 403.14 325.79C401.43 326.84 399.56 328.58 397.53 331C393.2 336.54 389.64 342.1 386.87 347.68C386.66 347.3 386.54 346.77 386.51 346.09C386.48 345.41 386.6 344.68 386.85 343.89C387.11 343.1 387.27 342.56 387.36 342.26L394.98 319.58L395.78 317.79C396.12 316.61 395.84 315.8 394.95 315.35C394.55 315.07 394.1 315.02 393.62 315.19C393.14 315.35 392.77 315.69 392.5 316.18C391.43 318.37 390.76 319.82 390.5 320.5C387.23 330.38 384.83 337.78 383.3 342.72C382.63 345.18 382.02 347.89 381.46 350.83L380.72 353.93C380.55 354.62 380.42 355.84 380.29 357.6C380.33 358.47 380.41 359.1 380.52 359.49C380.65 360.17 380.92 360.67 381.32 360.99C381.73 361.32 382.17 361.46 382.65 361.44C383.23 361.41 383.71 361.25 384.09 360.94C385.03 360.22 385.74 359.23 386.23 357.99C386.71 356.76 387.04 355.99 387.22 355.68C390.67 347.84 394.79 340.84 399.59 334.7C400.41 333.59 401.81 332.07 403.77 330.13C404.14 329.73 404.55 329.59 404.99 329.71C405.43 329.84 405.71 330.19 405.84 330.77C406.22 332.9 406.69 335.75 407.24 339.32C407.41 341.07 408.02 342.85 409.08 344.65C410.34 346.64 411.94 347.59 413.88 347.51L415.18 347.3C417.3 346.82 419.2 345.72 420.88 343.98L423.54 341.38C424.86 340.07 426.01 338.93 427.04 337.91C426.84 339.58 426.73 340.99 426.78 341.97C426.84 343.33 426.98 344.35 427.2 345.02C427.91 347.82 429.72 349.15 432.63 349.02C433.89 348.96 435.57 348.36 437.66 347.2C440.32 345.62 443.52 343.24 447.28 340.06C449.06 338.52 451.08 336.66 453.32 334.47C455.56 332.28 457.19 330.68 458.22 329.66L462.42 325.53C462.61 325.33 462.96 324.9 463.46 324.24C463.97 323.59 464.6 323.15 465.38 322.92C465.7 323.68 465.76 324.36 465.54 324.96C465.32 325.55 465.21 325.9 465.22 326L460.48 344.46C459.14 349.39 458.06 353.72 457.26 357.45L456.25 361.15C455.59 363.9 454.34 366.49 452.5 368.91C447.62 375.35 443.48 381.91 440.07 388.58C437.56 393.56 435.87 398.21 434.99 402.53C434.68 404.3 434.54 405.62 434.58 406.49C434.63 407.65 434.82 408.72 435.15 409.68C435.81 411.4 436.87 412.23 438.32 412.17C439.2 412.13 440.01 411.75 440.75 411.04C441.59 410.22 442.69 408.62 444.05 406.22C447.56 399.55 450.42 392.85 452.66 386.13L457.51 370.14C458.01 368.17 458.86 366.48 460.06 365.07C466.32 356.82 472.11 350.04 477.43 344.74L486 336.32C485.55 338.51 485.34 340.43 485.48 341.9C485.45 343.27 485.81 344.9 486.57 346.81C487.13 348.54 488.09 349.84 489.44 350.7C490.8 351.57 492.4 351.96 494.24 351.88C496.28 351.79 498.73 351.05 501.59 349.66C505.02 347.86 508.37 345.47 511.65 342.51C514.71 339.75 518.42 335.99 522.71 331.35C520.31 337.75 518.63 345 517.82 353.34C517.75 353.93 517.76 354.61 517.84 355.38C517.93 356.15 517.97 356.73 517.99 357.13C518.26 358.67 519.12 359.42 520.57 359.35C521.45 359.31 522.11 358.89 522.56 358.09C523.38 356.79 524.19 355.24 524.99 353.46C527.21 348.6 528.49 345.66 528.84 344.68L531.37 339.02C533.24 335.05 535.29 331.84 537.52 329.41C538.25 328.4 539.06 327.88 539.94 327.84L542.28 331.24C543.93 333.31 545.97 334.29 548.39 334.18C549.65 334.12 550.76 333.84 551.72 333.3C555.33 331.34 558.19 329.09 560.45 326.59C560.46 326.64 560.48 326.74 560.49 326.78C561.79 331.98 562.56 336.33 562.81 339.82C562.87 341.28 562.75 342.5 562.46 343.48C562.16 344.47 561.49 345.38 560.46 346.2C557.83 348.36 555.38 351.29 553.11 354.99C551.83 356.89 551.13 358.63 551 360.19L550.92 361.66C551.02 363.9 551.91 365.46 553.61 366.36C554.41 366.81 555.2 367.02 555.97 366.99C557.43 366.93 558.81 366.23 560.12 364.91C561.71 363.47 563.03 361.37 564.07 358.6C565.48 355.13 566.25 351.74 566.4 348.43C566.61 346.47 567.51 344.88 569.11 343.64L580.83 334.51L591.7 326.01C592.74 325.28 593.48 324.52 593.93 323.72C594.2 323.32 594.31 322.93 594.25 322.54C594.18 322.16 593.95 321.82 593.55 321.55C592.94 320.99 592.35 320.93 591.79 321.34L591.73 321.3ZM453.76 328.65C453.2 329.16 451.47 330.82 448.58 333.62C445.68 336.43 442.77 338.91 439.85 341.09C437.49 342.85 435.5 344.1 433.88 344.86C433.3 345.08 432.87 345.2 432.58 345.21C431.61 345.25 431 344.6 430.75 343.25L430.52 341.51C430.49 340.83 430.55 340 430.7 339.02C432.24 329.71 437.1 322.82 445.28 318.37C446.91 317.62 448.34 317.21 449.61 317.16C450.1 317.14 450.83 317.21 451.81 317.36C452.99 317.61 453.91 318.02 454.57 318.63C455.23 319.24 455.63 320.12 455.78 321.28L455.89 323.75C456.25 325.39 455.55 327.03 453.77 328.66L453.76 328.65ZM440.3 404.74C440.21 405.04 440.08 405.26 439.89 405.42C439.7 405.57 439.56 405.75 439.47 405.95L439.04 406.11L438.43 405.55C438.42 405.26 438.45 404.87 438.53 404.38C438.6 403.89 438.68 403.5 438.77 403.2C439.39 399.47 440.99 395.02 443.59 389.85C445.93 385.46 447.83 382.27 449.3 380.25C449.9 380.51 450.11 380.99 449.95 381.68C447.75 389.47 444.54 397.15 440.3 404.74ZM499.15 321.26C500 320.64 500.86 320.26 501.73 320.13C502.5 319.9 502.95 320.27 503.09 321.24C503.13 322.11 502.74 323.25 501.93 324.65C500.23 328.03 496.96 331.15 492.12 333.99C492.02 334.09 491.73 334.06 491.24 333.88C491.04 333.88 490.94 333.66 490.92 333.17C491.4 331.72 492.14 330.61 492.77 329.35L493.21 328.83C493.49 328.33 493.61 327.93 493.6 327.64C495.12 325.11 496.9 322.88 499.16 321.27L499.15 321.26ZM560.31 357.51C559.43 359.64 558.33 361.27 557.02 362.4C556.27 363.02 555.69 363.05 555.27 362.48C554.97 362.2 554.81 361.82 554.79 361.34C554.58 361.05 554.57 360.71 554.75 360.32C556.04 356.56 558.34 353.39 561.63 350.81C561.63 353.15 561.2 355.38 560.32 357.52L560.31 357.51Z" fill="#DACBB1"/>
<path d="M779.34 215.38V216.17H777.8V220.17H776.85V216.17H775.31V215.38H779.33H779.34ZM784.52 220.18L784.34 217.36C784.32 216.99 784.32 216.53 784.31 216.02H784.26C784.14 216.44 784 217.01 783.86 217.45L783 220.11H782.01L781.15 217.38C781.06 217.01 780.92 216.45 780.82 216.02H780.77C780.77 216.46 780.75 216.92 780.73 217.36L780.55 220.18H779.63L779.98 215.38H781.41L782.24 217.73C782.34 218.1 782.43 218.45 782.56 218.95H782.58C782.7 218.51 782.81 218.1 782.91 217.75L783.74 215.39H785.12L785.49 220.19H784.54L784.52 220.18Z" fill="#DACBB1"/>
</svg>
