<?xml version="1.0" encoding="UTF-8"?><svg id="Calque_1" xmlns="http://www.w3.org/2000/svg" viewBox="0 0 864 576"><defs><style>.cls-1{fill:#dacbb1;}</style></defs><g><path class="cls-1" d="M184.35,248.98c-25.76-12.04-26.61-23.65-18.37-29.04,9.72-6.76,28.93-5.17,39.6,16.47v-11.09c-9.08-14.68-47.62-15.21-47.62,8.34,0,12.04,11.09,18.06,22.39,23.13,24.6,11.3,26.5,22.17,19.53,27.98-13.31,11.19-36.96,2-47.31-24.18v14.68c11.93,15.31,36.11,19.53,48.15,10.35,3.8-3.06,6.13-7.5,6.13-13.2,0-12.46-10.98-18.48-22.49-23.44Z"/><path class="cls-1" d="M240.24,289.43h-17.85v-48.89c3.06,12.46,15.73,11.83,21.86,18.8v-8.34c-14.47,0-21.86-2.96-21.86-17.42v-17.11h8.66c12.88,0,18.37,.53,25.87,7.71v-8.45h-42.66v74.55h42.03l2.43-15.63c-3.8,10.67-9.29,14.78-18.48,14.78Z"/><path class="cls-1" d="M292.43,289.43h-17.85v-73.71h-8.45v74.55h42.13l2.54-15.63c-3.91,10.67-9.29,14.78-18.37,14.78Z"/><path class="cls-1" d="M326.35,240.53c3.17,12.46,15.63,11.83,22.07,18.8v-8.34c-14.68,0-22.07-2.96-22.07-17.42v-17.11h8.55c13.09,0,18.58,.53,25.97,7.71v-8.45h-42.66v74.55h8.13v-49.73Z"/><path class="cls-1" d="M437.71,290.16c.74,.64,1.06,.64,1.69,.74,4.75,.21,6.55-3.69,8.55-8.97,3.38-7.71,7.5-18.58,25.45-20.27l11.93,28.61h8.87l-31.57-74.55h-.74c-8.03,13.62-17.53,32.84-23.12,47.94-2.54,6.76-4.01,12.67-4.54,17.32-.53,4.75,.63,7.92,3.48,9.19Zm1.8-26.29c4.44-12.25,11.62-26.61,18.06-39.07l15.52,36.12c-18.27,1.79-22.49,12.88-25.98,20.8-1.69,4.86-3.38,8.55-7.6,8.24-.53-.31-.85-.31-1.48-.52-2.53-.85-3.27-4.12-3.06-8.45,.53-4.54,2-10.35,4.54-17.11Z"/><path class="cls-1" d="M509.98,231.03c.95,4.44,2.22,7.82,4.12,10.88,3.17,4.97,7.71,7.6,12.88,7.6,23.86,0,0,40.76,38.43,40.76v-.84c-7.07,0-10.98-8.03-14.99-17.21-4.23-9.93-7.92-20.59-18.9-23.12,9.19-1.17,17-6.44,17-16.79,0-12.04-12.78-16.68-28.3-16.68h-18.58v74.66h8.34v-59.24Zm0-14.57h10.24c10.24,0,19.96,3.8,19.96,15.84,0,11.09-5.7,16.05-12.46,16.47h-.74c-4.86,0-9.19-3.06-12.14-7.39-2.96-4.65-4.86-10.67-4.86-18.37v-6.55Z"/><path class="cls-1" d="M598.82,289.43h-17.85v-48.89c3.06,12.46,15.73,11.83,21.86,18.8v-8.34c-14.47,0-21.86-2.96-21.86-17.42v-17.11h8.66c12.88,0,18.37,.53,25.87,7.71v-8.45h-42.66v74.55h42.03l2.42-15.63c-3.8,10.67-9.29,14.78-18.48,14.78Z"/><path class="cls-1" d="M685.45,249.19c8.55-1.79,15.52-7.07,15.52-16.58,0-12.14-12.67-16.89-28.51-16.89h-18.27v74.55h25.02c16.26-.11,28.93-3.7,28.93-20.7,0-14.99-9.4-19.43-22.7-20.38Zm-22.91-32.73h9.93c10.14,0,20.27,4.12,20.27,16.16s-6.44,16.26-13.52,16.26c-4.75,0-8.87-2.64-11.83-7.39-3.06-4.44-4.86-10.77-4.86-18.06v-6.97Zm15.84,72.97h-15.84v-57.97c.85,4.12,2.11,7.71,4.01,10.56,3.07,4.86,7.71,7.71,12.67,7.71,9.19,0,20.7,.95,20.7,19.85s-12.04,19.85-21.54,19.85Z"/><path class="cls-1" d="M752.84,215.61c2.01,.21,5.39,2.22,3.17,6.55l-17.42,33.79-7.82-12.99-16.26-27.35h-9.5l25.76,43.29v31.36h8.34v-33.58l18.16-35.06c.74-1.9,4.75-5.81,7.5-6.02h-11.93Z"/><path class="cls-1" d="M384.99,370.25c-.3,0-.54,.05-.73,.15-.59,.29-1.12,.43-1.61,.43-.97,0-1.99-.72-3.06-2.18-1.45-2.14-2.43-4.81-2.92-8.03-.68-3.79-1.02-7.1-1.02-9.92,0-8.36,.78-17.22,2.33-26.55,.97-6.22,2.91-15.46,5.84-27.72l.87-3.65c.28-1.12,.57-2.44,.88-3.91,6.81,2.38,14.4,2.76,22.01,.57,7.6-2.01,14.36-6.34,19.01-12.14v-13.41c-1.48,11.41-7.5,21.86-19.22,25.03-7.75,2.1-14.98,.17-21.05-3.98,.09-.52,.18-.93,.28-1.48,.29-.87,.44-1.7,.44-2.48,0-.97-.2-1.85-.59-2.63-.58-1.26-1.51-1.89-2.77-1.89-.2,0-.58,.1-1.16,.29-.92,.46-1.89,1.23-2.9,2.21-4.62-5.19-8.08-11.63-9.83-18.02-4.02-16.05,.53-38.23,18.58-43.19,23.02-6.44,34.32,18.9,34.32,18.9v-10.98s-10.98-15.1-34.53-8.66c-19.96,5.28-31.68,25.97-26.51,46.04,2.41,8.46,7.46,15.38,13.9,20.27-2,2.19-3.78,4.17-5.08,5.68-2.09,2.43-4.06,5.11-5.91,8.03l-9.34,14.3c-.2,.3-1.12,1.66-2.77,4.09-.39,.58-.73,1.05-1.02,1.38-.29,.34-.64,.51-1.02,.51l-1.75-.29c-2.62-.58-5.93-1.22-9.92-1.9-1.37-.19-2.43-.29-3.21-.29-1.85,0-3.75,.29-5.69,.88-1.75,.68-3.06,1.56-3.94,2.62-.68,.78-1.02,1.66-1.02,2.63,0,.68,.15,1.31,.44,1.89,.87,1.56,2.04,2.33,3.5,2.33h.29l.73-.44c.2-.29,.14-.58-.15-.87-.09-.2-.24-.31-.43-.36-.2-.05-.34-.12-.44-.22-1.07-.88-1.6-1.66-1.6-2.33,0-.88,.68-1.61,2.04-2.19,1.55-.68,2.96-1.02,4.23-1.02,4.77-.29,9.82,.64,15.17,2.77,0,.78-.17,1.44-.51,1.97-.34,.53-.56,.85-.65,.94l-17.51,30.21c-.39,.68-1.56,2.69-3.5,6.05-1.95,3.36-3.99,6.45-6.13,9.27-1.26,1.75-2.48,3.21-3.64,4.38-.39,.39-.83,.51-1.31,.37-.49-.15-.78-.46-.88-.95-.29-1.26-.43-2.53-.43-3.79,0-1.46,.24-3.02,.73-4.67,.29-1.17,.92-1.8,1.89-1.9,.78-.2,1.17-.53,1.17-1.02v-.15c-.1-.77-.64-1.31-1.61-1.6-1.45-.29-2.62,.34-3.5,1.9-1.26,2.53-1.89,5.15-1.89,7.88,0,2.04,.34,4.03,1.02,5.98l.44,.88c.78,1.16,1.8,1.75,3.06,1.75,.68,0,1.31-.15,1.89-.44,1.17-.49,2.24-1.41,3.21-2.77,3.21-4.08,5.3-6.9,6.27-8.46,3.31-5.45,6.86-11.48,10.65-18.09l14-23.78c.58-.97,1.02-1.6,1.31-1.89,.29-.29,.68-.44,1.17-.44,.39,0,1.12,.15,2.19,.44,6.13,1.95,11.37,2.97,15.76,3.06,1.16,0,1.75,.49,1.75,1.46v.29c0,.49-.05,.97-.15,1.46-.1,.49-.14,.97-.14,1.45-.88,7.49-1.32,13.81-1.32,18.97,0,7.59,.88,13.71,2.63,18.39,1.56,3.6,3.89,6.08,7,7.44,.68,.39,1.46,.59,2.34,.59h.87c.58-.1,1.07-.42,1.46-.95,.39-.53,.58-1.19,.58-1.97v-.29c-.1-.58-.31-1.09-.65-1.53-.34-.44-.76-.66-1.24-.66Zm-11.09-49.17c-.39,.29-1.26,.49-2.63,.58h-1.02c-2.04,0-4.04-.21-5.98-.65-1.95-.44-4.48-1.1-7.59-1.97-.68-.2-1.02-.58-1.02-1.17l.14-.58,1.32-2.04,2.04-3.06c6.8-10.21,10.65-15.95,11.52-17.22,1.56-2.33,4.18-5.44,7.88-9.34l.08-.09c1.09,.66,2.25,1.16,3.4,1.71-.19,.88-.4,1.8-.71,2.91-1.66,7.49-3.79,16.93-6.42,28.31-.29,1.45-.64,2.33-1.02,2.62Z"/><path class="cls-1" d="M591.73,321.3l-1.84,1.25-20.49,15.79c-.56,.42-1.27,.89-2.12,1.41-.53-.76-.78-1.18-.79-1.28-.57-4.16-1.58-9.32-3.02-15.49-.25-1.16-.38-2.07-.41-2.76l.07-1.9c.18-2.63,1.43-5.17,3.76-7.61,1.67-1.83,3.62-2.74,5.87-2.74,.3,.09,.73,.02,1.3-.2,.29-.11,.52-.31,.7-.62,.18-.3,.26-.59,.25-.88-.01-.29-.17-.57-.48-.86-.61-.56-1.15-.87-1.65-.95-.4-.08-1.03-.1-1.9-.06-1.55,.07-3.04,.57-4.46,1.51-4.99,3.82-7.37,8.5-7.12,14.04,.03,.68,.17,1.56,.29,2.38-.56,.38-1.1,.8-1.58,1.33-2.33,2.34-4.83,4.3-7.49,5.87-.95,.53-1.77,.81-2.45,.84-1.26,.06-2.46-.77-3.61-2.47-.31-.47-.6-1.02-.87-1.64-.27-.62-.56-1.16-.87-1.64-.73-1.14-1.68-1.68-2.85-1.63-.58,.03-1.16,.19-1.73,.52-1.04,.72-2.11,1.7-3.23,2.91-2.42,2.54-4.61,5.81-6.58,9.78l-5.18,11.76-.15-.14h.15c-.32-.58-.49-1.16-.52-1.74-.03-.58,.13-1.56,.46-2.94,.97-4.42,2.33-8.96,4.07-13.61,1.58-3.96,2.72-6.93,3.41-8.91,.43-1.19,.63-2.27,.59-3.24,.16-.68-.2-1.16-1.08-1.41-.69-.16-1.27,0-1.73,.52-.27,.4-.48,.78-.61,1.12-.13,.35-.29,.67-.47,.97l-2.07,5.52c-.43-.06-.87,.05-1.31,.47l-2.66,2.75-9.92,10.21c-3.07,3.06-6.47,5.69-10.17,7.9-2.38,1.27-4.43,2.14-6.17,2.61-2.7,.61-4.4-.44-5.1-3.13-.43-.86-.67-1.97-.73-3.33-.03-.78-.01-1.36,.07-1.76,.16-.79,.53-1.24,1.11-1.36,2.61-.41,4.91-1.4,6.88-3,1.97-1.6,4.12-3.76,6.44-6.49,1.95-2.22,3.05-4.8,3.31-7.74,.12-1.66-.25-2.95-1.12-3.89s-2.03-1.37-3.49-1.31c-1.65,.07-3.12,.5-4.4,1.29-1.28,.79-2.62,1.89-4.01,3.32-2.03,2.1-3.66,4.61-5.05,7.38l-.17,.15c-10.28,9.9-18.15,17.98-23.62,24.26-.19,.2-.54,.63-1.04,1.29s-1.1,1.05-1.77,1.17c-.32-.57-.37-1.15-.15-1.75,.22-.59,.32-.94,.32-1.04,2.51-11.6,4.92-21,7.24-28.21,.42-1.48,.95-3.79,1.59-6.93,.15-1.08-.28-1.88-1.27-2.43-.3-.18-.69-.26-1.18-.24-.58,.03-1.06,.24-1.43,.64l-5.46,5.35c-.1,.1-.31,.33-.63,.68-.32,.36-.68,.54-1.07,.56-.29,.01-.54-.02-.74-.11-.01-.29-.14-.92-.37-1.89-.73-3.28-2.91-5.27-6.54-5.99-1.08-.24-2.11-.34-3.08-.3-1.95,.09-4.16,.76-6.63,2.04-6.42,3.64-10.99,8.63-13.73,14.96-.57,.59-1.35,1.36-2.45,2.39l-4.89,5.03-2.38,2.44c-1.68,1.64-3.24,2.73-4.68,3.28-1.15,.44-1.99,.13-2.52-.91-.74-1.23-1.24-2.72-1.51-4.46l-1.04-7.11c-.27-1.64-.61-2.84-1.03-3.6-.94-1.52-2.09-2.24-3.45-2.18-.78,.03-1.5,.26-2.16,.68-1.71,1.05-3.58,2.79-5.61,5.21-4.33,5.54-7.89,11.1-10.66,16.68-.21-.38-.33-.91-.36-1.59-.03-.68,.09-1.41,.34-2.2,.26-.79,.42-1.33,.51-1.63l7.62-22.68,.8-1.79c.34-1.18,.06-1.99-.83-2.44-.4-.28-.85-.33-1.33-.16-.48,.16-.85,.5-1.12,.99-1.07,2.19-1.74,3.64-2,4.32-3.27,9.88-5.67,17.28-7.2,22.22-.67,2.46-1.28,5.17-1.84,8.11l-.74,3.1c-.17,.69-.3,1.91-.43,3.67,.04,.87,.12,1.5,.23,1.89,.13,.68,.4,1.18,.8,1.5,.41,.33,.85,.47,1.33,.45,.58-.03,1.06-.19,1.44-.5,.94-.72,1.65-1.71,2.14-2.95,.48-1.23,.81-2,.99-2.31,3.45-7.84,7.57-14.84,12.37-20.98,.82-1.11,2.22-2.63,4.18-4.57,.37-.4,.78-.54,1.22-.42,.44,.13,.72,.48,.85,1.06,.38,2.13,.85,4.98,1.4,8.55,.17,1.75,.78,3.53,1.84,5.33,1.26,1.99,2.86,2.94,4.8,2.86l1.3-.21c2.12-.48,4.02-1.58,5.7-3.32l2.66-2.6c1.32-1.31,2.47-2.45,3.5-3.47-.2,1.67-.31,3.08-.26,4.06,.06,1.36,.2,2.38,.42,3.05,.71,2.8,2.52,4.13,5.43,4,1.26-.06,2.94-.66,5.03-1.82,2.66-1.58,5.86-3.96,9.62-7.14,1.78-1.54,3.8-3.4,6.04-5.59,2.24-2.19,3.87-3.79,4.9-4.81l4.2-4.13c.19-.2,.54-.63,1.04-1.29,.51-.65,1.14-1.09,1.92-1.32,.32,.76,.38,1.44,.16,2.04-.22,.59-.33,.94-.32,1.04l-4.74,18.46c-1.34,4.93-2.42,9.26-3.22,12.99l-1.01,3.7c-.66,2.75-1.91,5.34-3.75,7.76-4.88,6.44-9.02,13-12.43,19.67-2.51,4.98-4.2,9.63-5.08,13.95-.31,1.77-.45,3.09-.41,3.96,.05,1.16,.24,2.23,.57,3.19,.66,1.72,1.72,2.55,3.17,2.49,.88-.04,1.69-.42,2.43-1.13,.84-.82,1.94-2.42,3.3-4.82,3.51-6.67,6.37-13.37,8.61-20.09l4.85-15.99c.5-1.97,1.35-3.66,2.55-5.07,6.26-8.25,12.05-15.03,17.37-20.33l8.57-8.42c-.45,2.19-.66,4.11-.52,5.58-.03,1.37,.33,3,1.09,4.91,.56,1.73,1.52,3.03,2.87,3.89,1.36,.87,2.96,1.26,4.8,1.18,2.04-.09,4.49-.83,7.35-2.22,3.43-1.8,6.78-4.19,10.06-7.15,3.06-2.76,6.77-6.52,11.06-11.16-2.4,6.4-4.08,13.65-4.89,21.99-.07,.59-.06,1.27,.02,2.04,.09,.77,.13,1.35,.15,1.75,.27,1.54,1.13,2.29,2.58,2.22,.88-.04,1.54-.46,1.99-1.26,.82-1.3,1.63-2.85,2.43-4.63,2.22-4.86,3.5-7.8,3.85-8.78l2.53-5.66c1.87-3.97,3.92-7.18,6.15-9.61,.73-1.01,1.54-1.53,2.42-1.57l2.34,3.4c1.65,2.07,3.69,3.05,6.11,2.94,1.26-.06,2.37-.34,3.33-.88,3.61-1.96,6.47-4.21,8.73-6.71,.01,.05,.03,.15,.04,.19,1.3,5.2,2.07,9.55,2.32,13.04,.06,1.46-.06,2.68-.35,3.66-.3,.99-.97,1.9-2,2.72-2.63,2.16-5.08,5.09-7.35,8.79-1.28,1.9-1.98,3.64-2.11,5.2l-.08,1.47c.1,2.24,.99,3.8,2.69,4.7,.8,.45,1.59,.66,2.36,.63,1.46-.06,2.84-.76,4.15-2.08,1.59-1.44,2.91-3.54,3.95-6.31,1.41-3.47,2.18-6.86,2.33-10.17,.21-1.96,1.11-3.55,2.71-4.79l11.72-9.13,10.87-8.5c1.04-.73,1.78-1.49,2.23-2.29,.27-.4,.38-.79,.32-1.18-.07-.38-.3-.72-.7-.99-.61-.56-1.2-.62-1.76-.21Zm-137.97,7.35c-.56,.51-2.29,2.17-5.18,4.97-2.9,2.81-5.81,5.29-8.73,7.47-2.36,1.76-4.35,3.01-5.97,3.77-.58,.22-1.01,.34-1.3,.35-.97,.04-1.58-.61-1.83-1.96l-.23-1.74c-.03-.68,.03-1.51,.18-2.49,1.54-9.31,6.4-16.2,14.58-20.65,1.63-.75,3.06-1.16,4.33-1.21,.49-.02,1.22,.05,2.2,.2,1.18,.25,2.1,.66,2.76,1.27,.66,.61,1.06,1.49,1.21,2.65l.11,2.47c.36,1.64-.34,3.28-2.12,4.91Zm-13.46,76.09c-.09,.3-.22,.52-.41,.68-.19,.15-.33,.33-.42,.53l-.43,.16-.61-.56c-.01-.29,.02-.68,.1-1.17,.07-.49,.15-.88,.24-1.18,.62-3.73,2.22-8.18,4.82-13.35,2.34-4.39,4.24-7.58,5.71-9.6,.6,.26,.81,.74,.65,1.43-2.2,7.79-5.41,15.47-9.65,23.06Zm58.85-83.48c.85-.62,1.71-1,2.58-1.13,.77-.23,1.22,.14,1.36,1.11,.04,.87-.35,2.01-1.16,3.41-1.7,3.38-4.97,6.5-9.81,9.34-.1,.1-.39,.07-.88-.11-.2,0-.3-.22-.32-.71,.48-1.45,1.22-2.56,1.85-3.82l.44-.52c.28-.5,.4-.9,.39-1.19,0,0,0,0,0,0,1.52-2.53,3.3-4.76,5.56-6.37Zm61.16,36.25c-.88,2.13-1.98,3.76-3.29,4.89-.75,.62-1.33,.65-1.75,.08-.3-.28-.46-.66-.48-1.14-.21-.29-.22-.63-.04-1.02,1.29-3.76,3.59-6.93,6.88-9.51,0,2.34-.43,4.57-1.31,6.71Z"/></g><path class="cls-1" d="M779.34,215.38v.79h-1.54v4h-.95v-4h-1.54v-.79h4.02Zm5.18,4.8l-.18-2.82c-.02-.37-.02-.83-.03-1.34h-.05c-.12,.42-.26,.99-.4,1.43l-.86,2.66h-.99l-.86-2.73c-.09-.37-.23-.93-.33-1.36h-.05c0,.44-.02,.9-.04,1.34l-.18,2.82h-.92l.35-4.8h1.43l.83,2.35c.1,.37,.19,.72,.32,1.22h.02c.12-.44,.23-.85,.33-1.2l.83-2.36h1.38l.37,4.8h-.95Z"/></svg>
